<svg xmlns="http://www.w3.org/2000/svg" width="305.302" height="75.538" viewBox="0 0 305.302 75.538">
  <g id="logo" transform="translate(-0.099 -0.031)">
    <path id="Path_1" data-name="Path 1" d="M.1.031V47.24L28.424,75.569,42.588,47.243l14.164,0V.031Z"/>
    <g id="Path_2" data-name="Path 2" fill="#fbd791">
      <path d="M 28.92399787902832 74.36186218261719 L 28.92399787902832 20.12200927734375 L 56.04487991333008 47.24002075195312 L 28.92399787902832 74.36186218261719 Z" stroke="none"/>
      <path d="M 29.42399787902832 73.15473175048828 L 55.33776092529297 47.24005126953125 L 29.42399787902832 21.32902908325195 L 29.42399787902832 73.15473175048828 M 28.42399787902832 75.56900024414062 L 28.42399787902832 18.91500091552734 L 56.75199890136719 47.2400016784668 L 28.42399787902832 75.56900024414062 Z" stroke="none" fill="#000"/>
    </g>
    <path id="Path_3" data-name="Path 3" d="M82.851,37.635l1.863-7.268h9.357l1.817,7.268h7.224l-8.9-32.8H85.169l-9.086,32.8Zm9.767-12.31H86.077l3.134-14.176H89.3Z"/>
    <path id="Path_4" data-name="Path 4" d="M115.844,23.28h4c3.451,0,4.542,1.772,4.542,4.682,0,4.585-3.271,4.631-4.724,4.631h-3.816V23.28Zm0-13.4h4.224a3.929,3.929,0,0,1,3.961,3.9c0,.094,0,.187-.008.281,0,3.18-2.09,4.179-3.589,4.179h-4.587V9.88Zm5.269,27.755c2.908,0,10.131-.362,10.131-8.677,0-4.5-1.272-7.631-6.133-8.312v-.09c3.726-.726,5.588-3.453,5.588-7.223,0-7-4.314-8.5-9.54-8.5H108.985v32.8h12.128Z"/>
    <path id="Path_5" data-name="Path 5" d="M145.657,37.635V13.649h.089L154.7,37.635h9.041V4.838H157.33V27.55h-.091L148.517,4.838H139.25v32.8Z"/>
    <path id="Path_6" data-name="Path 6" d="M174.5,23.15l4.4-4.4-4.4-4.388-4.388,4.388Z"/>
    <path id="Path_7" data-name="Path 7" d="M187.871,37.635l1.862-7.268h9.357l1.817,7.268h7.224l-8.9-32.8h-9.039l-9.086,32.8Zm9.766-12.31H191.1l3.134-14.176h.091Z"/>
    <path id="Path_8" data-name="Path 8" d="M220.454,37.635v-25.3h.09l6,25.3h6.54l6.315-25.3h.09v25.3h6.68V4.838H235.49l-5.45,22.3h-.092l-5.135-22.3H213.778v32.8Z"/>
    <path id="Path_9" data-name="Path 9" d="M262.026,9.88h3.041c2.181,0,3.5,1.181,3.5,4.313,0,2.089-.772,4.815-3.5,4.815h-3.041Zm0,14.172H263.8c5.269,0,4.9,3.315,4.9,7.223,0,2.137-.181,4.362.727,6.36h6.723c-.636-1.36-.772-7.541-.772-9.63,0-5.907-4.453-6.269-5.953-6.451v-.09c4.453-.727,6.087-3.86,6.087-8.041,0-5.587-3-8.584-7.677-8.584h-12.67v32.8h6.859V24.056Z"/>
    <path id="Path_10" data-name="Path 10" d="M294.089,33.277c-3.861,0-4.361-3.635-4.361-12.039s.5-12.038,4.361-12.038,4.36,3.637,4.36,12.038S297.947,33.277,294.089,33.277Zm0,4.9c11.312,0,11.312-8.358,11.312-16.944,0-8.676,0-16.947-11.312-16.947s-11.312,8.271-11.312,16.947c0,8.589,0,16.948,11.312,16.948Z"/>
  </g>
</svg>
